<svg xmlns="http://www.w3.org/2000/svg" width="24" height="24" viewBox="0 0 24 24"><circle cx="12" cy="12" r="10.85" fill="#212d2e"/><path d="M7,14.23V12.15a.28.28,0,0,0-.1-.24l-.43-.44a.33.33,0,0,1-.08-.18V7.1a.68.68,0,0,1,.66-.69h4.2a.34.34,0,0,1,.19.09,5.55,5.55,0,0,1,.42.42.32.32,0,0,0,.27.11h4.05A.72.72,0,0,1,17,7.8c0,1.35,0,2.71,0,4.06a.23.23,0,0,0,.09.22l.45.46a.26.26,0,0,1,.07.17c0,1.4,0,2.79,0,4.19a.67.67,0,0,1-.66.69H12.75a.31.31,0,0,1-.22-.09,5.44,5.44,0,0,1-.42-.41.3.3,0,0,0-.26-.11H7.76A.66.66,0,0,1,7,16.24ZM14.45,12V9.72c0-.16,0-.17-.17-.17H9.72c-.16,0-.17,0-.17.17v4.56c0,.16,0,.17.17.17h4.56c.16,0,.17,0,.17-.17Z" fill="#fff"/></svg>