<svg xmlns="http://www.w3.org/2000/svg" viewBox="0 0 24 24"><path d="M21 2.7l-7.8 5.8 1.5-3.4z" fill="#e17726" stroke="#e17726" stroke-linecap="round" stroke-linejoin="round" stroke-width=".3"/><path d="M3 2.7l7.8 5.9L9.3 5zM18.2 16.2l-2 3.2 4.4 1.2 1.3-4.4zM2.1 16.2l1.3 4.4 4.5-1.2-2.1-3.2z" fill="#e27625" stroke="#e27625" stroke-linecap="round" stroke-linejoin="round" stroke-width=".3"/><path d="M7.6 10.8l-1.2 1.9 4.4.2-.2-4.8zM16.4 10.8L13.3 8l-.1 4.9 4.4-.2zM7.9 19.4l2.6-1.3-2.3-1.8zM13.5 18l2.6 1.4-.3-3.1z" fill="#e27625" stroke="#e27625" stroke-linecap="round" stroke-linejoin="round" stroke-width=".3"/><path d="M16.1 19.4L13.5 18l.2 1.7v.7zM7.9 19.4l2.4 1.1v-.7l.2-1.7z" fill="#d5bfb2" stroke="#d5bfb2" stroke-linecap="round" stroke-linejoin="round" stroke-width=".3"/><path d="M10.4 15.1l-2.2-.6 1.5-.7zM13.6 15.1l.7-1.3 1.5.7z" fill="#233447" stroke="#233447" stroke-linecap="round" stroke-linejoin="round" stroke-width=".3"/><path d="M7.9 19.4l.3-3.2H5.8zM15.8 16.2l.3 3.2 2.1-3.2zM17.6 12.7l-4.4.2.4 2.2.7-1.3 1.5.7zM8.2 14.5l1.5-.7.7 1.3.4-2.2-4.4-.2z" fill="#cc6228" stroke="#cc6228" stroke-linecap="round" stroke-linejoin="round" stroke-width=".3"/><path d="M6.4 12.7l1.8 3.6v-1.8zM15.8 14.5v1.8l1.8-3.6zM10.8 12.9l-.4 2.2.5 2.7.1-3.5zM13.2 12.9l-.2 1.4.1 3.5.5-2.7z" fill="#e27525" stroke="#e27525" stroke-linecap="round" stroke-linejoin="round" stroke-width=".3"/><path d="M13.6 15.1l-.5 2.7.4.3 2.3-1.8v-1.8zM8.2 14.5v1.8l2.3 1.8.4-.3-.5-2.7z" fill="#f5841f" stroke="#f5841f" stroke-linecap="round" stroke-linejoin="round" stroke-width=".3"/><path d="M13.7 20.5v-.7l-.2-.2h-3l-.2.2v.7l-2.4-1.1.8.7 1.8 1.2h3l1.8-1.2.8-.7z" fill="#c0ac9d" stroke="#c0ac9d" stroke-linecap="round" stroke-linejoin="round" stroke-width=".3"/><path d="M13.5 18l-.4-.2h-2.2l-.4.3-.2 1.7.2-.2h3l.2.2z" fill="#161616" stroke="#161616" stroke-linecap="round" stroke-linejoin="round" stroke-width=".3"/><path d="M21.4 8.9l.6-3.2-1-3-7.5 5.6 2.9 2.5 4.1 1.2 1-1-.5-.4.6-.5-.5-.4.7-.5zM2 5.7l.6 3.2-.4.3.6.5-.4.4.6.5-.4.3.9 1.1 4.1-1.2 3-2.5L3 2.7z" fill="#763e1a" stroke="#763e1a" stroke-linecap="round" stroke-linejoin="round" stroke-width=".3"/><path d="M20.5 12l-4.1-1.2 1.2 1.9-1.8 3.6h6.1zM7.6 10.8L3.5 12l-1.4 4.2h6.1l-1.8-3.5zM13.2 12.9l.3-4.6 1.2-3.2H9.3l1.2 3.2.3 4.6.1 1.4v3.5h2.2v-3.5z" fill="#f5841f" stroke="#f5841f" stroke-linecap="round" stroke-linejoin="round" stroke-width=".3"/></svg>