<svg xmlns="http://www.w3.org/2000/svg" width="24" height="24" viewBox="0 0 24 24"><path d="M21.05,2.71,13.2,8.52,14.66,5.1Z" fill="#e17726" stroke="#e17726" stroke-linecap="round" stroke-linejoin="round" stroke-width="0.25"/><path d="M3,2.71l7.78,5.86L9.34,5.1Z" fill="#e27625" stroke="#e27625" stroke-linecap="round" stroke-linejoin="round" stroke-width="0.25"/><path d="M18.22,16.17l-2.08,3.19,4.46,1.23,1.29-4.35Z" fill="#e27625" stroke="#e27625" stroke-linecap="round" stroke-linejoin="round" stroke-width="0.25"/><path d="M2.12,16.24l1.27,4.35,4.47-1.23L5.78,16.17Z" fill="#e27625" stroke="#e27625" stroke-linecap="round" stroke-linejoin="round" stroke-width="0.25"/><path d="M7.62,10.78,6.37,12.66l4.43.2L10.65,8.1Z" fill="#e27625" stroke="#e27625" stroke-linecap="round" stroke-linejoin="round" stroke-width="0.25"/><path d="M16.38,10.78,13.3,8.05l-.1,4.81,4.43-.2Z" fill="#e27625" stroke="#e27625" stroke-linecap="round" stroke-linejoin="round" stroke-width="0.25"/><path d="M7.86,19.36l2.67-1.29-2.3-1.8Z" fill="#e27625" stroke="#e27625" stroke-linecap="round" stroke-linejoin="round" stroke-width="0.25"/><path d="M13.47,18.07l2.67,1.29-.37-3.09Z" fill="#e27625" stroke="#e27625" stroke-linecap="round" stroke-linejoin="round" stroke-width="0.25"/><path d="M16.14,19.36l-2.67-1.29.21,1.73,0,.74Z" fill="#d5bfb2" stroke="#d5bfb2" stroke-linecap="round" stroke-linejoin="round" stroke-width="0.25"/><path d="M7.86,19.36l2.48,1.18,0-.74.21-1.73Z" fill="#d5bfb2" stroke="#d5bfb2" stroke-linecap="round" stroke-linejoin="round" stroke-width="0.25"/><path d="M10.39,15.13l-2.22-.65,1.56-.72Z" fill="#233447" stroke="#233447" stroke-linecap="round" stroke-linejoin="round" stroke-width="0.25"/><path d="M13.61,15.13l.66-1.37,1.57.72Z" fill="#233447" stroke="#233447" stroke-linecap="round" stroke-linejoin="round" stroke-width="0.25"/><path d="M7.86,19.36l.38-3.19-2.46.07Z" fill="#cc6228" stroke="#cc6228" stroke-linecap="round" stroke-linejoin="round" stroke-width="0.25"/><path d="M15.76,16.17l.38,3.19,2.08-3.12Z" fill="#cc6228" stroke="#cc6228" stroke-linecap="round" stroke-linejoin="round" stroke-width="0.25"/><path d="M17.63,12.66l-4.43.2.41,2.27.66-1.37,1.57.72Z" fill="#cc6228" stroke="#cc6228" stroke-linecap="round" stroke-linejoin="round" stroke-width="0.25"/><path d="M8.17,14.48l1.56-.72.66,1.37.41-2.27-4.43-.2Z" fill="#cc6228" stroke="#cc6228" stroke-linecap="round" stroke-linejoin="round" stroke-width="0.25"/><path d="M6.37,12.66l1.86,3.61-.06-1.79Z" fill="#e27525" stroke="#e27525" stroke-linecap="round" stroke-linejoin="round" stroke-width="0.25"/><path d="M15.84,14.48l-.07,1.79,1.86-3.61Z" fill="#e27525" stroke="#e27525" stroke-linecap="round" stroke-linejoin="round" stroke-width="0.25"/><path d="M10.8,12.86l-.41,2.27.52,2.67L11,14.28Z" fill="#e27525" stroke="#e27525" stroke-linecap="round" stroke-linejoin="round" stroke-width="0.25"/><path d="M13.2,12.86,13,14.27l.1,3.53.52-2.67Z" fill="#e27525" stroke="#e27525" stroke-linecap="round" stroke-linejoin="round" stroke-width="0.25"/><path d="M13.61,15.13l-.52,2.67.38.27,2.3-1.8.07-1.79Z" fill="#f5841f" stroke="#f5841f" stroke-linecap="round" stroke-linejoin="round" stroke-width="0.25"/><path d="M8.17,14.48l.06,1.79,2.3,1.8.38-.27-.52-2.67Z" fill="#f5841f" stroke="#f5841f" stroke-linecap="round" stroke-linejoin="round" stroke-width="0.25"/><path d="M13.66,20.54l0-.74-.2-.17h-3l-.2.17,0,.74L7.86,19.36l.87.71,1.76,1.22h3l1.76-1.22.87-.71Z" fill="#c0ac9d" stroke="#c0ac9d" stroke-linecap="round" stroke-linejoin="round" stroke-width="0.25"/><path d="M13.47,18.07l-.38-.27H10.91l-.38.27-.21,1.73.2-.17h3l.2.17Z" fill="#161616" stroke="#161616" stroke-linecap="round" stroke-linejoin="round" stroke-width="0.25"/><path d="M21.38,8.9,22,5.69l-1-3L13.47,8.32l2.91,2.46L20.5,12l.91-1.06L21,10.64l.62-.57-.48-.38.63-.48Z" fill="#763e1a" stroke="#763e1a" stroke-linecap="round" stroke-linejoin="round" stroke-width="0.25"/><path d="M2,5.69,2.63,8.9l-.43.31.64.48-.48.38.62.57-.39.28L3.5,12l4.12-1.2,2.91-2.46L3,2.71Z" fill="#763e1a" stroke="#763e1a" stroke-linecap="round" stroke-linejoin="round" stroke-width="0.25"/><path d="M20.5,12l-4.12-1.2,1.25,1.88-1.86,3.61,2.45,0h3.67Z" fill="#f5841f" stroke="#f5841f" stroke-linecap="round" stroke-linejoin="round" stroke-width="0.25"/><path d="M7.62,10.78,3.5,12,2.12,16.24H5.78l2.45,0L6.37,12.66Z" fill="#f5841f" stroke="#f5841f" stroke-linecap="round" stroke-linejoin="round" stroke-width="0.25"/><path d="M13.2,12.86l.27-4.54L14.66,5.1H9.34l1.19,3.22.27,4.54.1,1.42V17.8h2.18V14.28Z" fill="#f5841f" stroke="#f5841f" stroke-linecap="round" stroke-linejoin="round" stroke-width="0.25"/></svg>