<svg xmlns="http://www.w3.org/2000/svg" viewBox="0 0 24 24"><path fill="#133444" d="M4.5 13.8l.5-.3 7-3 7.5 3.3-2.8 5.8-7 1L4.7 15l-.1-1.2z"/><path d="M18 10.2a7.7 7.7 0 00-5-2.8h-.1a9.2 9.2 0 00-1.8 0h-.2A7.7 7.7 0 006 10.2l-.3.5-.5.9-.4.6.8.5L11 16l1 .6V9l-1 .5V8.3l1-.5 1 .5 5.3 2.4z" fill="#c42370"/><path d="M19.8 15.6a8.3 8.3 0 01-3 6.4 7.8 7.8 0 01-2.5 1.4 7 7 0 01-2.3.3 8 8 0 01-7.8-8 8 8 0 01.3-2l7.5 4.5 7.5-4.4a8.5 8.5 0 01.3 1.8z" fill="#1c4d6b"/><path d="M11 7.4l1 .4-1 .5v-1 .1zM11 9.4l1-.5v7.6l-1-.6V9.4z"/><path fill="#1d4259" d="M12 9v7.5l7.2-4.3L12 9z"/><path fill="#4b6b9a" d="M12 .2V9l7.2 3.3L12 .2z"/><path d="M12 9v7.5l-1-.6-6.2-3.7.9-1.5L11 8.3v1.1z" fill="#343535"/><path fill="#3e5578" d="M12 9v7.5l-1-.6-6.2-3.7L11 9.4l1-.5z"/><path fill="#6db2d8" d="M12 .2V9l-7.2 3.3L12 .2z"/><path d="M9 23.1l.4.2zM9.4 23.3h.3zM10 23.5h.3z" fill="#335f8a"/><path d="M4.5 13.8l7.5 4.4a8.1 8.1 0 01-.6 2c-.6 1.5-1.8 3-4.1 1.8a8.3 8.3 0 01-3-6.4 8 8 0 01.2-1.8z" fill="#6db2d8"/><path d="M16.7 22l-.1.1h-.1l-.1.1-.1.1-.2.1a.4.4 0 00-.1.1h-.1v.1l-.2.1a.7.7 0 00-.1 0l-.2.2h-.1a1.2 1.2 0 01-.2 0 1.4 1.4 0 01-.2.1h-.1l-.3.2H14l-.3.1h-.4a.3.3 0 00-.1 0H10.3l-.3.2H9.7l-.3-.1a2 2 0 01-.4-.2H9a.6.6 0 01-.2-.2.8.8 0 01-.1 0l-.2-.2-.2-.1-.2-.1-.1-.1-.2-.1-.1-.1-.1-.1a.4.4 0 01-.2-.1c2.4 1.1 3.6-.4 4.2-1.9a9.1 9.1 0 00.6-2 8.6 8.6 0 00.5 2c.6 1.4 1.8 3 4.1 1.8z" fill="#529bba"/><path d="M13.7 23.6l.3-.1zM14.3 23.4l.3-.1zM14.6 23.3l.3-.2z" fill="#335f8a"/><path d="M19.8 15.6a8.3 8.3 0 01-3 6.4c-2.4 1.2-3.7-.4-4.3-1.8a8.6 8.6 0 01-.5-2l7.5-4.5a8 8 0 01.3 2z" fill="#4b6b9a"/></svg>