<svg xmlns="http://www.w3.org/2000/svg" width="24" height="24" viewBox="0 0 24 24"><polygon points="4.46 13.76 5.03 13.52 12 10.48 19.54 13.76 16.71 19.62 9.78 20.59 4.57 14.97 4.46 13.76" fill="#133444"/><path d="M18,10.16A7.7,7.7,0,0,0,13,7.43l-.12,0a9.22,9.22,0,0,0-1.82,0l-.12,0A7.7,7.7,0,0,0,6,10.16H6l-.32.52-.52.87-.38.64h0a.06.06,0,0,1,0,.05h0l.84.5L11,15.91l1,.61V9l-1,.47V8.3l1-.47,1,.47,5.26,2.38Z" fill="#c42370"/><path d="M19.78,15.64A8.29,8.29,0,0,1,16.73,22a7.76,7.76,0,0,1-2.45,1.36,7,7,0,0,1-2.27.38,8.07,8.07,0,0,1-7.77-8.12,7.93,7.93,0,0,1,.23-1.88L12,18.22l7.54-4.46A8.48,8.48,0,0,1,19.78,15.64Z" fill="#1c4d6b"/><polygon points="11.09 7.4 12 7.82 10.97 8.29 10.97 7.36 11.09 7.4"/><polygon points="10.97 9.43 12 8.95 12 16.5 10.97 15.9 10.97 9.43"/><polygon points="12 8.95 12 16.5 19.23 12.24 12 8.95" fill="#1d4259"/><polygon points="12 0.24 12 8.95 19.23 12.24 12 0.24" fill="#4b6b9a"/><path d="M12,9V16.5l-1-.6L4.78,12.24h0a.05.05,0,0,1,0-.05h0l.9-1.5L11,8.31V9.45Z" fill="#343535"/><polygon points="12 8.95 12 16.5 10.97 15.9 4.78 12.24 4.77 12.24 4.78 12.23 10.97 9.43 12 8.95" fill="#3e5578"/><polygon points="12 0.24 12 8.95 4.77 12.24 12 0.24" fill="#6db2d8"/><path d="M9.07,23.14l.33.14Z" fill="#335f8a"/><path d="M9.4,23.27l.33.11Z" fill="#335f8a"/><path d="M10,23.48l.26.07Z" fill="#335f8a"/><path d="M4.46,13.76,12,18.22a8.1,8.1,0,0,1-.55,2c-.6,1.46-1.82,3-4.18,1.82h0a8.31,8.31,0,0,1-3-6.39A7.92,7.92,0,0,1,4.46,13.76Z" fill="#6db2d8"/><path d="M16.71,22h0l-.15.12-.07.05-.11.07-.13.09-.15.11a.42.42,0,0,0-.12.08l-.09.06-.08.06,0,0s-.06,0-.11.06a.71.71,0,0,0-.15.08l-.16.08-.07,0s0,0-.07,0a1.19,1.19,0,0,1-.16.08,1.38,1.38,0,0,1-.2.1c.2-.1,0,0-.11,0l-.31.12-.35.1-.15,0-.26.07-.09,0h-.06l-.14,0-.12,0a.35.35,0,0,0-.12,0l-.13,0H10.94l-.13,0-.11,0-.13,0-.14,0h-.06l-.09,0L10,23.49l-.15,0-.14,0c-.11,0-.22-.09-.33-.12a1.92,1.92,0,0,1-.33-.14l-.16-.07A.6.6,0,0,1,8.75,23a.8.8,0,0,1-.16-.08h0l-.15-.08-.11-.07-.12-.07-.07-.05L8,22.56l0,0-.12-.09-.14-.09-.15-.1-.13-.11,0,0a.4.4,0,0,1-.12-.1h0c2.36,1.18,3.57-.38,4.17-1.83a9.1,9.1,0,0,0,.55-2,8.57,8.57,0,0,0,.54,2C13.16,21.65,14.35,23.2,16.71,22Z" fill="#529bba"/><path d="M13.72,23.55l.26-.07Z" fill="#335f8a"/><path d="M14.27,23.38l.33-.11Z" fill="#335f8a"/><path d="M14.58,23.28c.1-.05.24-.09.35-.15Z" fill="#335f8a"/><path d="M19.78,15.64A8.29,8.29,0,0,1,16.73,22c-2.36,1.18-3.58-.37-4.18-1.82a8.57,8.57,0,0,1-.55-2l7.54-4.46A7.94,7.94,0,0,1,19.78,15.64Z" fill="#4b6b9a"/></svg>