<svg xmlns="http://www.w3.org/2000/svg" width="24" height="24" viewBox="0 0 24 24"><path d="M5,7.55A10.1,10.1,0,0,1,19,7.55l.47.46a.49.49,0,0,1,0,.69l-1.6,1.56a.24.24,0,0,1-.35,0l-.65-.63a7.06,7.06,0,0,0-9.82,0l-.69.68a.26.26,0,0,1-.35,0L4.45,8.74a.47.47,0,0,1,0-.69Zm17.39,3.24,1.43,1.39a.49.49,0,0,1,0,.69l-6.43,6.29a.5.5,0,0,1-.7,0h0L12.09,14.7a.13.13,0,0,0-.18,0h0L7.35,19.16a.5.5,0,0,1-.7,0h0L.22,12.87a.49.49,0,0,1,0-.69l1.43-1.39a.5.5,0,0,1,.7,0l4.56,4.46a.13.13,0,0,0,.18,0h0l4.56-4.46a.5.5,0,0,1,.7,0h0l4.56,4.46a.13.13,0,0,0,.18,0l4.56-4.46A.5.5,0,0,1,22.35,10.79Z" fill="#3b99fc"/></svg>