<svg width="111" height="111" viewBox="0 0 111 111" fill="none"
  xmlns="http://www.w3.org/2000/svg">
  <circle cx="55.5" cy="55.79" r="55" fill="url(#paint0_linear)" />
  <g clip-path="url(#clip0)">
    <path fill-rule="evenodd" clip-rule="evenodd"
      d="M66.6385 67.5894H63.1281C62.4686 67.5894 61.9341 67.0613 61.9341 66.4106V57.2488L55.772 61.0645C55.255 61.3847 54.5975 61.3847 54.0806 61.0645L47.9184 57.2483V66.4106C47.9184 67.0613 47.3836 67.5894 46.7245 67.5894H43.214C42.5542 67.5894 42.0201 67.0613 42.0201 66.4106V48.7521C42.0201 47.4877 43.4552 46.7407 44.5114 47.4555L54.2517 54.0445C54.6581 54.3199 55.1945 54.3199 55.6012 54.0445L65.3408 47.4555C66.3973 46.7404 67.8325 47.4873 67.8325 48.7517V66.4106C67.8325 67.0613 67.298 67.5894 66.6385 67.5894Z"
      fill="#FF4A4A" />
    <path fill-rule="evenodd" clip-rule="evenodd"
      d="M36.732 67.4321L14.9847 67.4317C14.1097 67.4317 13.4004 66.7309 13.4004 65.8665V48.1739C13.4004 47.5255 13.9323 47 14.5886 47H18.0823C18.7382 47 19.2705 47.5255 19.2705 48.1739V61.6321L32.4461 61.6326V48.1739C32.4461 47.5255 32.9777 47 33.6343 47H37.128C37.784 47 38.3163 47.5255 38.3163 48.1739V65.8669C38.3163 66.7313 37.6069 67.4321 36.732 67.4321Z"
      fill="#FF4A4A" />
    <path fill-rule="evenodd" clip-rule="evenodd"
      d="M73.0688 47L94.8161 47.0004C95.6909 47.0004 96.4004 47.7012 96.4004 48.5656V66.2582C96.4004 66.9066 95.8679 67.4321 95.2123 67.4321H91.7185C91.0623 67.4321 90.5304 66.9066 90.5304 66.2582V53.5826C90.5304 53.1506 90.1754 52.8 89.738 52.8L78.1471 52.7996C77.7096 52.7996 77.3546 53.1498 77.3546 53.5822V66.2582C77.3546 66.9066 76.8227 67.4321 76.1666 67.4321H72.6727C72.0164 67.4321 71.4845 66.9066 71.4845 66.2582V48.5652C71.4845 47.7008 72.1938 47 73.0688 47Z"
      fill="#FF4A4A" />
    <path fill-rule="evenodd" clip-rule="evenodd"
      d="M81.0066 57.7535V61.2366C81.0066 61.8807 81.5392 62.4027 82.1959 62.4027H85.6891C86.3459 62.4027 86.8784 61.8807 86.8784 61.2366V57.7535C86.8784 57.1094 86.3459 56.5874 85.6891 56.5874H82.1959C81.5392 56.5874 81.0066 57.1094 81.0066 57.7535Z"
      fill="#FF4A4A" />
  </g>
  <defs>
    <linearGradient id="paint0_linear" x1="55.5" y1="0.790039" x2="55.5" y2="110.79"
      gradientUnits="userSpaceOnUse">
      <stop stop-color="#FFF4F1" />
      <stop offset="1" stop-color="white" />
    </linearGradient>
    <clipPath id="clip0">
      <rect width="83" height="21" fill="white" transform="translate(13.4004 47)" />
    </clipPath>
  </defs>
</svg>