<svg width="48" height="48" viewBox="0 0 48 48" fill="none" xmlns="http://www.w3.org/2000/svg">
<mask id="mask0_8_625" style="mask-type:luminance" maskUnits="userSpaceOnUse" x="-2" y="0" width="52" height="48">
<path d="M49.5 0.367493H-1.5V47.6325H49.5V0.367493Z" fill="white" style="fill:white;fill:white;fill-opacity:1;"/>
</mask>
<g mask="url(#mask0_8_625)">
<mask id="mask1_8_625" style="mask-type:alpha" maskUnits="userSpaceOnUse" x="3" y="2" width="42" height="42">
<path d="M27.1396 43.1562C38.2904 41.1651 45.7159 30.5114 43.7248 19.3606C41.7337 8.20972 31.08 0.784289 19.9292 2.7754C8.77831 4.7665 1.35288 15.4202 3.34399 26.571C5.3351 37.7218 15.9887 45.1473 27.1396 43.1562Z" fill="#C4C4C4" style="fill:#C4C4C4;fill:color(display-p3 0.7686 0.7686 0.7686);fill-opacity:1;"/>
</mask>
<g mask="url(#mask1_8_625)">
<path opacity="0.3" d="M1.41763 13.2648C-9.05541 17.0866 -4.86144 24.546 -7.27205 24.1706L-20.478 23.1812L-16.5561 4.54603C-13.1513 1.45848 -6.25641 -4.74425 -5.91493 -4.85481C-5.57346 -4.96537 7.16454 -9.02932 13.4908 -11.0475L40.5276 -11.35L50.6397 -3.48518C48.911 1.16277 44.8896 11.4893 42.6328 15.6116C41.1 13.5297 25.3101 4.54603 1.41763 13.2648Z" fill="#8889BB" style="fill:#8889BB;fill:color(display-p3 0.5333 0.5373 0.7333);fill-opacity:1;"/>
</g>
<mask id="mask2_8_625" style="mask-type:alpha" maskUnits="userSpaceOnUse" x="3" y="2" width="42" height="42">
<path d="M27.1396 43.1562C38.2904 41.1651 45.7159 30.5114 43.7248 19.3606C41.7337 8.20972 31.08 0.784289 19.9292 2.7754C8.77831 4.7665 1.35288 15.4202 3.34399 26.571C5.3351 37.7218 15.9887 45.1473 27.1396 43.1562Z" fill="#C4C4C4" style="fill:#C4C4C4;fill:color(display-p3 0.7686 0.7686 0.7686);fill-opacity:1;"/>
</mask>
<g mask="url(#mask2_8_625)">
<path opacity="0.3" d="M26.3051 32.3449L22.626 50.2029L29.7395 53.3432L67.885 43.2555C67.245 36.9641 58.6872 30.0659 58.4797 29.7501C58.2721 29.4343 50.1821 19.7434 47.8465 16.779L47.7331 21.0838L47.9729 22.4271L47.4997 24.7169L46.8258 25.5303L42.3488 23.7464C40.0612 23.7559 35.3295 23.8153 34.7032 23.9775C34.0769 24.1397 28.8435 29.6234 26.3051 32.3449Z" fill="#8889BB" style="fill:#8889BB;fill:color(display-p3 0.5333 0.5373 0.7333);fill-opacity:1;"/>
</g>
<mask id="mask3_8_625" style="mask-type:alpha" maskUnits="userSpaceOnUse" x="1" y="0" width="45" height="46">
<path d="M27.4682 44.9976C39.6361 42.8249 47.7387 31.1996 45.566 19.0318C43.3933 6.86397 31.768 -1.23869 19.6002 0.934017C7.43234 3.10672 -0.670317 14.732 1.50238 26.8999C3.67509 39.0677 15.3004 47.1703 27.4682 44.9976Z" fill="#C4C4C4" style="fill:#C4C4C4;fill:color(display-p3 0.7686 0.7686 0.7686);fill-opacity:1;"/>
</mask>
<g mask="url(#mask3_8_625)">
<path d="M4.96399 35.8037C9.75916 24.5488 24.8852 20.505 30.7459 20.4685C28.2596 20.8473 22.0991 22.8602 17.3472 27.8819C29.29 19.9142 39.9725 21.8991 43.821 23.8876L45.9037 25.903C46.2262 25.2774 46.7177 24.5579 46.5503 22.1943C46.9187 24.6474 46.453 25.8661 45.7202 27.3225C43.8672 24.0808 39.5877 24.0482 37.6796 24.4372C28.1992 26.1609 25.7749 35.6742 25.7477 40.2154C25.6638 45.3718 28.6451 54.3895 30.1462 58.2538L19.317 58.8366C16.9433 52.2267 15.6144 36.0325 26.6304 25.879C11.2459 33.5905 10.2965 51.0682 8.80677 54.1952C7.23363 54.7332 -11.5888 60.8016 4.96399 35.8037Z" fill="#8889BB" style="fill:#8889BB;fill:color(display-p3 0.5333 0.5373 0.7333);fill-opacity:1;"/>
</g>
<path d="M39.7021 19.2056C39.8732 19.1251 40.4738 18.8265 41.1344 18.1691C42.3721 18.422 43.5755 18.9203 43.5755 18.9203C41.3899 17.3079 38.3405 16.2502 34.9082 16.0688C34.9082 16.0688 36.1094 18.161 39.7021 19.2056C39.702 19.2075 39.6799 19.227 39.7021 19.2056Z" fill="#8889BB" style="fill:#8889BB;fill:color(display-p3 0.5333 0.5373 0.7333);fill-opacity:1;"/>
<path fill-rule="evenodd" clip-rule="evenodd" d="M17.3335 27.8132C17.6385 27.6198 17.9414 27.4317 18.2422 27.2489L21.5049 25.4263C28.0894 22.2394 38.7532 19.5534 45.5482 24.9544C46.6369 23.273 46.3772 21.3937 46.0881 20.6215C46.8468 21.4284 48.001 24.4945 45.7631 27.2335C45.4076 26.6424 45.0748 26.1076 44.7084 25.6344L42.3583 24.0102L37.0478 23.1686C36.58 23.18 36.0825 23.2016 35.5528 23.2339C35.1668 23.2574 34.7883 23.2845 34.4173 23.3147L29.008 24.3002C29.2815 24.4946 27.7837 25.3211 20.2508 27.1323L18.3552 28.0052L17.3442 27.8743C17.385 27.8438 17.4264 27.8132 17.4686 27.7825C17.4237 27.7927 17.3787 27.8029 17.3335 27.8132Z" fill="#8889BB" style="fill:#8889BB;fill:color(display-p3 0.5333 0.5373 0.7333);fill-opacity:1;"/>
<path d="M45.7728 27.2221C43.5517 24.2606 40.0236 24.0166 38.5372 24.2648L38.0054 23.8866L42.2229 23.6612L44.6678 24.7088C44.9225 25.0243 45.5002 25.9687 45.7728 27.2221Z" fill="#8889BB" style="fill:#8889BB;fill:color(display-p3 0.5333 0.5373 0.7333);fill-opacity:1;"/>
</g>
</svg>
