<svg width="146" height="48" viewBox="0 0 146 48" fill="none" xmlns="http://www.w3.org/2000/svg">
<mask id="mask0_8_577" style="mask-type:luminance" maskUnits="userSpaceOnUse" x="0" y="0" width="51" height="48">
<path d="M51 0.367493H0V47.6325H51V0.367493Z" fill="white" style="fill:white;fill:white;fill-opacity:1;"/>
</mask>
<g mask="url(#mask0_8_577)">
<mask id="mask1_8_577" style="mask-type:alpha" maskUnits="userSpaceOnUse" x="4" y="2" width="42" height="42">
<path d="M28.6396 43.1562C39.7904 41.1651 47.2159 30.5114 45.2248 19.3606C43.2337 8.20972 32.58 0.784289 21.4292 2.7754C10.2783 4.7665 2.85288 15.4202 4.84399 26.571C6.8351 37.7218 17.4887 45.1473 28.6396 43.1562Z" fill="#C4C4C4" style="fill:#C4C4C4;fill:color(display-p3 0.7686 0.7686 0.7686);fill-opacity:1;"/>
</mask>
<g mask="url(#mask1_8_577)">
<path opacity="0.3" d="M2.91763 13.2648C-7.55541 17.0866 -3.36144 24.546 -5.77205 24.1706L-18.978 23.1812L-15.0561 4.54603C-11.6513 1.45848 -4.75641 -4.74425 -4.41493 -4.85481C-4.07346 -4.96537 8.66454 -9.02932 14.9908 -11.0475L42.0276 -11.35L52.1397 -3.48518C50.411 1.16277 46.3896 11.4893 44.1328 15.6116C42.6 13.5297 26.8101 4.54603 2.91763 13.2648Z" fill="#8889BB" style="fill:#8889BB;fill:color(display-p3 0.5333 0.5373 0.7333);fill-opacity:1;"/>
</g>
<mask id="mask2_8_577" style="mask-type:alpha" maskUnits="userSpaceOnUse" x="4" y="2" width="42" height="42">
<path d="M28.6396 43.1562C39.7904 41.1651 47.2159 30.5114 45.2248 19.3606C43.2337 8.20972 32.58 0.784289 21.4292 2.7754C10.2783 4.7665 2.85288 15.4202 4.84399 26.571C6.8351 37.7218 17.4887 45.1473 28.6396 43.1562Z" fill="#C4C4C4" style="fill:#C4C4C4;fill:color(display-p3 0.7686 0.7686 0.7686);fill-opacity:1;"/>
</mask>
<g mask="url(#mask2_8_577)">
<path opacity="0.3" d="M27.8051 32.3449L24.126 50.2029L31.2395 53.3432L69.385 43.2555C68.745 36.9641 60.1872 30.0659 59.9797 29.7501C59.7721 29.4343 51.6821 19.7434 49.3465 16.779L49.2331 21.0838L49.4729 22.4271L48.9997 24.7169L48.3258 25.5303L43.8488 23.7464C41.5612 23.7559 36.8295 23.8153 36.2032 23.9775C35.5769 24.1397 30.3435 29.6234 27.8051 32.3449Z" fill="#8889BB" style="fill:#8889BB;fill:color(display-p3 0.5333 0.5373 0.7333);fill-opacity:1;"/>
</g>
<mask id="mask3_8_577" style="mask-type:alpha" maskUnits="userSpaceOnUse" x="2" y="0" width="46" height="46">
<path d="M28.9682 44.9976C41.1361 42.8249 49.2387 31.1996 47.066 19.0318C44.8933 6.86397 33.268 -1.23869 21.1002 0.934017C8.93234 3.10672 0.829683 14.732 3.00238 26.8999C5.17509 39.0677 16.8004 47.1703 28.9682 44.9976Z" fill="#C4C4C4" style="fill:#C4C4C4;fill:color(display-p3 0.7686 0.7686 0.7686);fill-opacity:1;"/>
</mask>
<g mask="url(#mask3_8_577)">
<path d="M6.46399 35.8037C11.2592 24.5488 26.3852 20.505 32.2459 20.4685C29.7596 20.8473 23.5991 22.8602 18.8472 27.8819C30.79 19.9142 41.4725 21.8991 45.321 23.8876L47.4037 25.903C47.7262 25.2774 48.2177 24.5579 48.0503 22.1943C48.4187 24.6474 47.953 25.8661 47.2202 27.3225C45.3672 24.0808 41.0877 24.0482 39.1796 24.4372C29.6992 26.1609 27.2749 35.6742 27.2477 40.2154C27.1638 45.3718 30.1451 54.3895 31.6462 58.2538L20.817 58.8366C18.4433 52.2267 17.1144 36.0325 28.1304 25.879C12.7459 33.5905 11.7965 51.0682 10.3068 54.1952C8.73363 54.7332 -10.0888 60.8016 6.46399 35.8037Z" fill="#8889BB" style="fill:#8889BB;fill:color(display-p3 0.5333 0.5373 0.7333);fill-opacity:1;"/>
</g>
<path d="M41.2021 19.2056C41.3732 19.1251 41.9738 18.8265 42.6344 18.1691C43.8721 18.422 45.0755 18.9203 45.0755 18.9203C42.8899 17.3079 39.8405 16.2502 36.4082 16.0688C36.4082 16.0688 37.6094 18.161 41.2021 19.2056C41.202 19.2075 41.1799 19.227 41.2021 19.2056Z" fill="#8889BB" style="fill:#8889BB;fill:color(display-p3 0.5333 0.5373 0.7333);fill-opacity:1;"/>
<path fill-rule="evenodd" clip-rule="evenodd" d="M18.8335 27.8132C19.1385 27.6198 19.4414 27.4317 19.7422 27.2489L23.0049 25.4263C29.5894 22.2394 40.2532 19.5534 47.0482 24.9544C48.1369 23.273 47.8772 21.3937 47.5881 20.6215C48.3468 21.4284 49.501 24.4945 47.2631 27.2335C46.9076 26.6424 46.5748 26.1076 46.2084 25.6344L43.8583 24.0102L38.5478 23.1686C38.08 23.18 37.5825 23.2016 37.0528 23.2339C36.6668 23.2574 36.2883 23.2845 35.9173 23.3147L30.508 24.3002C30.7815 24.4946 29.2837 25.3211 21.7508 27.1323L19.8552 28.0052L18.8442 27.8743C18.885 27.8438 18.9264 27.8132 18.9686 27.7825C18.9237 27.7927 18.8787 27.8029 18.8335 27.8132Z" fill="#8889BB" style="fill:#8889BB;fill:color(display-p3 0.5333 0.5373 0.7333);fill-opacity:1;"/>
<path d="M47.2728 27.2221C45.0517 24.2606 41.5236 24.0166 40.0372 24.2648L39.5054 23.8866L43.7229 23.6612L46.1678 24.7088C46.4225 25.0243 47.0002 25.9687 47.2728 27.2221Z" fill="#8889BB" style="fill:#8889BB;fill:color(display-p3 0.5333 0.5373 0.7333);fill-opacity:1;"/>
</g>
<path d="M70.364 18.166H66.584L65.856 20H62.944L67.004 9.444H70L73.976 20H71.05L70.364 18.166ZM69.622 16.066L68.502 12.706H68.474L67.34 16.066H69.622ZM77.3255 12.818V13.994H77.3535C77.8435 13.112 78.6835 12.72 79.6775 12.72H80.1675V15.17C79.8175 14.974 79.4815 14.932 79.0895 14.932C77.6755 14.932 77.3255 15.87 77.3255 17.102V20H74.7775V12.818H77.3255ZM84.8733 14.792C83.8373 14.792 83.2353 15.534 83.2353 16.416C83.2353 17.326 83.8373 18.026 84.8733 18.026C85.9093 18.026 86.5113 17.326 86.5113 16.416C86.5113 15.534 85.9093 14.792 84.8733 14.792ZM88.9753 12.818V20H86.4273V19.202H86.3993C85.9513 19.916 85.0693 20.238 84.2293 20.238C82.1013 20.238 80.6033 18.46 80.6033 16.402C80.6033 14.344 82.0733 12.58 84.2013 12.58C85.0273 12.58 85.8953 12.888 86.4273 13.518V12.818H88.9753ZM98.5462 12.818V19.3C98.5462 22.352 97.0342 23.584 94.3882 23.584C92.7362 23.584 90.5242 22.73 90.3002 20.84H93.1562C93.2262 21.092 93.4082 21.274 93.6322 21.386C93.8562 21.498 94.1222 21.554 94.3602 21.554C95.7322 21.554 95.9982 20.658 95.9982 19.496V19.16C95.3402 19.818 94.6682 20.14 93.7162 20.14C91.6162 20.14 90.1742 18.544 90.1742 16.472C90.1742 14.372 91.6582 12.58 93.8562 12.58C94.6962 12.58 95.4662 12.86 95.9702 13.574H95.9982V12.818H98.5462ZM94.4442 14.736C93.4082 14.736 92.8062 15.478 92.8062 16.36C92.8062 17.27 93.4082 17.97 94.4442 17.97C95.4802 17.97 96.0822 17.27 96.0822 16.36C96.0822 15.478 95.4802 14.736 94.4442 14.736ZM103.933 12.58C106.243 12.58 108.259 13.966 108.259 16.416C108.259 18.852 106.243 20.238 103.933 20.238C101.637 20.238 99.6068 18.866 99.6068 16.416C99.6068 13.966 101.623 12.58 103.933 12.58ZM103.933 14.792C102.897 14.792 102.295 15.534 102.295 16.416C102.295 17.326 102.897 18.026 103.933 18.026C104.969 18.026 105.571 17.326 105.571 16.416C105.571 15.534 104.969 14.792 103.933 14.792ZM111.956 12.818V13.742H111.984C112.572 12.874 113.286 12.58 114.28 12.58C116.212 12.58 116.982 13.798 116.982 15.562V20H114.434V16.5C114.434 15.814 114.546 14.61 113.286 14.61C112.25 14.61 111.956 15.38 111.956 16.276V20H109.408V12.818H111.956ZM70.364 35.166H66.584L65.856 37H62.944L67.004 26.444H70L73.976 37H71.05L70.364 35.166ZM69.622 33.066L68.502 29.706H68.474L67.34 33.066H69.622ZM80.3775 30.042L79.5235 31.666C79.1315 31.456 78.5855 31.316 78.1515 31.316C77.8575 31.316 77.3535 31.442 77.3535 31.806C77.3535 32.296 78.1515 32.366 78.5015 32.436C79.6915 32.674 80.5875 33.234 80.5875 34.564C80.5875 36.454 78.8655 37.238 77.1995 37.238C76.1775 37.238 75.1695 36.944 74.3015 36.412L75.2255 34.634C75.7435 34.998 76.6115 35.362 77.2415 35.362C77.5635 35.362 78.0395 35.208 78.0395 34.816C78.0395 34.256 77.2415 34.228 76.4435 34.018C75.6455 33.808 74.8475 33.416 74.8475 32.128C74.8475 30.364 76.4435 29.58 78.0115 29.58C78.8235 29.58 79.6355 29.706 80.3775 30.042ZM87.5552 30.042L86.7012 31.666C86.3092 31.456 85.7632 31.316 85.3292 31.316C85.0352 31.316 84.5312 31.442 84.5312 31.806C84.5312 32.296 85.3292 32.366 85.6792 32.436C86.8692 32.674 87.7652 33.234 87.7652 34.564C87.7652 36.454 86.0432 37.238 84.3772 37.238C83.3552 37.238 82.3472 36.944 81.4792 36.412L82.4032 34.634C82.9212 34.998 83.7892 35.362 84.4192 35.362C84.7412 35.362 85.2172 35.208 85.2172 34.816C85.2172 34.256 84.4192 34.228 83.6212 34.018C82.8232 33.808 82.0252 33.416 82.0252 32.128C82.0252 30.364 83.6212 29.58 85.1892 29.58C86.0012 29.58 86.8132 29.706 87.5552 30.042ZM92.927 29.58C95.237 29.58 97.253 30.966 97.253 33.416C97.253 35.852 95.237 37.238 92.927 37.238C90.631 37.238 88.601 35.866 88.601 33.416C88.601 30.966 90.617 29.58 92.927 29.58ZM92.927 31.792C91.891 31.792 91.289 32.534 91.289 33.416C91.289 34.326 91.891 35.026 92.927 35.026C93.963 35.026 94.565 34.326 94.565 33.416C94.565 32.534 93.963 31.792 92.927 31.792ZM103.583 30V32.156C103.205 31.876 102.757 31.652 102.267 31.652C101.287 31.652 100.517 32.408 100.517 33.402C100.517 34.438 101.258 35.166 102.309 35.166C102.757 35.166 103.247 34.984 103.583 34.676V36.832C103.023 37.112 102.407 37.238 101.791 37.238C99.6625 37.238 97.8845 35.656 97.8845 33.486C97.8845 31.176 99.6485 29.58 101.903 29.58C102.491 29.58 103.079 29.72 103.583 30ZM107.718 29.818V37H105.17V29.818H107.718ZM106.444 25.632C107.228 25.632 107.872 26.276 107.872 27.06C107.872 27.844 107.228 28.488 106.444 28.488C105.66 28.488 105.016 27.844 105.016 27.06C105.016 26.276 105.66 25.632 106.444 25.632ZM113.147 31.792C112.111 31.792 111.509 32.534 111.509 33.416C111.509 34.326 112.111 35.026 113.147 35.026C114.183 35.026 114.785 34.326 114.785 33.416C114.785 32.534 114.183 31.792 113.147 31.792ZM117.249 29.818V37H114.701V36.202H114.673C114.225 36.916 113.343 37.238 112.503 37.238C110.375 37.238 108.877 35.46 108.877 33.402C108.877 31.344 110.347 29.58 112.475 29.58C113.301 29.58 114.169 29.888 114.701 30.518V29.818H117.249ZM121.724 31.918V37H119.176V31.918H118.35V29.818H119.176V27.662H121.724V29.818H123.166V31.918H121.724ZM126.531 29.818V37H123.983V29.818H126.531ZM125.257 25.632C126.041 25.632 126.685 26.276 126.685 27.06C126.685 27.844 126.041 28.488 125.257 28.488C124.473 28.488 123.829 27.844 123.829 27.06C123.829 26.276 124.473 25.632 125.257 25.632ZM132.001 29.58C134.311 29.58 136.327 30.966 136.327 33.416C136.327 35.852 134.311 37.238 132.001 37.238C129.705 37.238 127.675 35.866 127.675 33.416C127.675 30.966 129.691 29.58 132.001 29.58ZM132.001 31.792C130.965 31.792 130.363 32.534 130.363 33.416C130.363 34.326 130.965 35.026 132.001 35.026C133.037 35.026 133.639 34.326 133.639 33.416C133.639 32.534 133.037 31.792 132.001 31.792ZM140.025 29.818V30.742H140.053C140.641 29.874 141.355 29.58 142.349 29.58C144.281 29.58 145.051 30.798 145.051 32.562V37H142.503V33.5C142.503 32.814 142.615 31.61 141.355 31.61C140.319 31.61 140.025 32.38 140.025 33.276V37H137.477V29.818H140.025Z" fill="#8889BB" style="fill:#8889BB;fill:color(display-p3 0.5333 0.5373 0.7333);fill-opacity:1;"/>
</svg>
