<svg width="610" height="526" viewBox="0 0 610 526" fill="none" xmlns="http://www.w3.org/2000/svg">
<rect width="610" height="526" rx="12" fill="#8889BB" fill-opacity="0.25" style="fill:#8889BB;fill:color(display-p3 0.5333 0.5373 0.7333);fill-opacity:0.25;"/>
<rect x="1" y="1" width="608" height="524" rx="11" stroke="#8889BB" stroke-opacity="0.75" style="stroke:#8889BB;stroke:color(display-p3 0.5333 0.5373 0.7333);stroke-opacity:0.75;" stroke-width="2"/>
<g opacity="0.5">
<mask id="mask0_13_6188" style="mask-type:alpha" maskUnits="userSpaceOnUse" x="2" y="1" width="606" height="524">
<rect x="2" y="1" width="606" height="524" rx="12" fill="#D9D9D9" style="fill:#D9D9D9;fill:color(display-p3 0.8510 0.8510 0.8510);fill-opacity:1;"/>
</mask>
<g mask="url(#mask0_13_6188)">
<g clip-path="url(#clip0_13_6188)">
<path d="M453.573 177.202C405.132 93.3014 297.849 64.5548 213.948 112.995C130.047 161.435 101.3 268.719 149.74 352.62C198.181 436.521 305.464 465.268 389.365 416.827C473.266 368.387 502.013 261.103 453.573 177.202Z" stroke="url(#paint0_linear_13_6188)" style="" stroke-width="1.22384" stroke-linecap="round"/>
<path d="M495.967 152.726C434.009 45.4109 296.785 8.64203 189.47 70.6005C82.155 132.559 45.3861 269.782 107.345 377.097C169.303 484.413 306.526 521.182 413.842 459.223C521.157 397.265 557.926 260.041 495.967 152.726Z" stroke="url(#paint1_linear_13_6188)" style="" stroke-width="1.22384" stroke-linecap="round"/>
<path d="M539.776 127.433C463.848 -4.07689 295.687 -49.1355 164.177 26.7918C32.6675 102.719 -12.3911 270.88 63.5362 402.39C139.463 533.9 307.624 578.958 439.134 503.031C570.644 427.104 615.703 258.943 539.776 127.433Z" stroke="url(#paint2_linear_13_6188)" style="" stroke-width="1.22384" stroke-linecap="round"/>
<path opacity="0.2" d="M56.7506 336.512C51.099 326.723 38.5821 323.369 28.7932 329.021C19.0043 334.672 15.6504 347.189 21.302 356.978C26.9536 366.767 39.4706 370.121 49.2595 364.469C59.0483 358.818 62.4022 346.301 56.7506 336.512Z" fill="url(#paint3_linear_13_6188)" style=""/>
<path d="M42.4378 352.652L33.0242 350.13L35.5468 340.717L44.9604 343.239L42.4378 352.652Z" fill="#8889BB" style="fill:#8889BB;fill:color(display-p3 0.5333 0.5373 0.7333);fill-opacity:1;"/>
<path d="M272.156 466.398C261.238 463.473 250.016 469.952 247.09 480.87C244.165 491.788 250.644 503.01 261.562 505.936C272.48 508.861 283.703 502.382 286.628 491.464C289.554 480.546 283.074 469.324 272.156 466.398Z" fill="#8889BB" fill-opacity="0.2" style="fill:#8889BB;fill:color(display-p3 0.5333 0.5373 0.7333);fill-opacity:0.2;"/>
<path d="M260.825 489.594L270.239 492.116L272.762 482.703L263.348 480.18L260.825 489.594Z" fill="#8889BB" style="fill:#8889BB;fill:color(display-p3 0.5333 0.5373 0.7333);fill-opacity:1;"/>
<path d="M417.363 49.297C406.445 46.3715 395.223 52.8508 392.297 63.7689C389.372 74.6869 395.851 85.9093 406.769 88.8348C417.687 91.7603 428.91 85.281 431.835 74.363C434.761 63.4449 428.281 52.2225 417.363 49.297Z" fill="url(#paint4_linear_13_6188)" fill-opacity="0.5" style=""/>
<path d="M407.293 67.7859C406.596 70.3855 408.139 73.0575 410.738 73.7541C413.338 74.4506 416.01 72.9079 416.707 70.3083C417.403 67.7088 415.86 65.0368 413.261 64.3403C410.661 63.6437 407.989 65.1864 407.293 67.7859Z" fill="#979AFF" style="fill:#979AFF;fill:color(display-p3 0.5917 0.6054 1.0000);fill-opacity:1;"/>
</g>
</g>
</g>
<path d="M280.473 262.397C279.699 262.397 279.072 263.023 279.072 263.797C279.072 264.57 279.699 265.197 280.473 265.197V262.397ZM314.367 264.787C314.913 264.24 314.913 263.353 314.367 262.807L305.456 253.896C304.909 253.349 304.023 253.349 303.476 253.896C302.929 254.443 302.929 255.329 303.476 255.876L311.396 263.797L303.476 271.717C302.929 272.264 302.929 273.151 303.476 273.697C304.023 274.244 304.909 274.244 305.456 273.697L314.367 264.787ZM280.473 265.197H313.376V262.397H280.473V265.197Z" fill="#BCBDFF" style="fill:#BCBDFF;fill:color(display-p3 0.7375 0.7426 1.0000);fill-opacity:1;"/>
<path fill-rule="evenodd" clip-rule="evenodd" d="M371.667 189H423.207H424.267H424.267H425.328H518.439H519.5V190.06V336.833V337.893L519.5 337.893L518.439 337.893L518.439 337.893H461.597H460.536L371.667 337.893H370.606V336.833V281.051V279.99V190.06V189H371.667ZM462.657 335.772H517.379V281.051H462.657V335.772ZM460.536 281.051V335.772H372.727V281.051L423.207 281.051H424.267H460.536ZM517.379 278.93L461.597 278.93H460.536L425.328 278.93L425.328 245.418H517.379V278.93ZM517.379 191.121H425.328V243.297H517.379L517.379 191.121ZM372.727 278.93H423.207L423.207 245.418V244.358V244.358V243.297V191.121H372.727V278.93Z" fill="#8889BB" style="fill:#8889BB;fill:color(display-p3 0.5333 0.5373 0.7333);fill-opacity:1;"/>
<circle cx="160" cy="264" r="60" fill="#8889BB" fill-opacity="0.25" style="fill:#8889BB;fill:color(display-p3 0.5333 0.5373 0.7333);fill-opacity:0.25;"/>
<path fill-rule="evenodd" clip-rule="evenodd" d="M148.793 226.143L143.515 220.839C151.46 219.87 172.422 221.113 192.714 233.841C193.055 235.21 192.714 237.262 192.714 237.262L194.417 238.118L194.423 238.126L194.425 238.112C201.235 242.047 207.268 247.778 206.852 256.417C206.35 266.852 199.702 270.958 195.446 271.642C197.489 268.392 195.787 266.339 195.106 265.655C194.595 265.141 193.244 264.085 190.547 264.098C190.531 264.106 190.516 264.114 190.501 264.121C187.777 264.121 183.147 265.695 181.649 272.675C181.626 272.778 181.604 272.881 181.581 272.982C180.965 284.412 196.137 289.818 208.965 286.95C199.59 303.56 181.66 315.975 160.12 315.975C131.273 315.975 107.889 294.427 107.889 268.348C107.889 245.914 126.052 227.702 148.754 226.156L148.793 226.143ZM184.178 236.108C182.857 237.484 181.622 238.144 181.269 238.323C173.554 236.682 170.775 232.691 170.775 232.691C178.052 232.646 184.62 234.377 189.425 237.305C189.425 237.305 186.824 236.462 184.178 236.108Z" fill="#8889BB" fill-opacity="0.5" style="fill:#8889BB;fill:color(display-p3 0.5333 0.5373 0.7333);fill-opacity:0.5;"/>
<circle cx="446" cy="264" r="50" fill="#8889BB" fill-opacity="0.25" style="fill:#8889BB;fill:color(display-p3 0.5333 0.5373 0.7333);fill-opacity:0.25;"/>
<path fill-rule="evenodd" clip-rule="evenodd" d="M438.087 228.634L433.689 224.214C440.31 223.407 457.778 224.443 474.688 235.049C474.972 236.19 474.688 237.9 474.688 237.9L476.107 238.613L476.112 238.621L476.114 238.608C481.789 241.887 486.817 246.663 486.47 253.862C486.052 262.559 480.512 265.98 476.965 266.55C478.668 263.842 477.249 262.131 476.682 261.561C476.256 261.132 475.13 260.252 472.882 260.264C472.873 260.268 472.863 260.273 472.854 260.278C472.85 260.279 472.847 260.281 472.844 260.282C470.574 260.282 466.715 261.594 465.467 267.41C465.448 267.498 465.429 267.584 465.41 267.669C464.898 277.192 477.541 281.696 488.23 279.306C480.418 293.148 465.476 303.494 447.526 303.494C423.487 303.494 404 285.537 404 263.805C404 245.11 419.136 229.933 438.055 228.645L438.087 228.634ZM467.575 236.938C466.474 238.085 465.445 238.635 465.151 238.784C458.722 237.417 456.406 234.091 456.406 234.091C462.47 234.053 467.943 235.496 471.948 237.936C471.948 237.936 469.78 237.233 467.575 236.938Z" fill="#8889BB" fill-opacity="0.5" style="fill:#8889BB;fill:color(display-p3 0.5333 0.5373 0.7333);fill-opacity:0.5;"/>
<defs>
<linearGradient id="paint0_linear_13_6188" x1="549.721" y1="324.246" x2="58.7066" y2="235.343" gradientUnits="userSpaceOnUse">
<stop stop-color="#FFEDD7" style="stop-color:#FFEDD7;stop-color:color(display-p3 1.0000 0.9294 0.8431);stop-opacity:1;"/>
<stop offset="1" stop-color="#979AFF" style="stop-color:#979AFF;stop-color:color(display-p3 0.5922 0.6039 1.0000);stop-opacity:1;"/>
</linearGradient>
<linearGradient id="paint1_linear_13_6188" x1="219.53" y1="571.409" x2="30.5932" y2="99.9573" gradientUnits="userSpaceOnUse">
<stop stop-color="#8889BB" style="stop-color:#8889BB;stop-color:color(display-p3 0.5333 0.5373 0.7333);stop-opacity:1;"/>
<stop offset="1" stop-color="#979AFF" style="stop-color:#979AFF;stop-color:color(display-p3 0.5922 0.6039 1.0000);stop-opacity:1;"/>
</linearGradient>
<linearGradient id="paint2_linear_13_6188" x1="-376.831" y1="722.886" x2="-193.708" y2="921.673" gradientUnits="userSpaceOnUse">
<stop stop-color="#8889BB" style="stop-color:#8889BB;stop-color:color(display-p3 0.5333 0.5373 0.7333);stop-opacity:1;"/>
<stop offset="1" stop-color="#DADAF5" style="stop-color:#DADAF5;stop-color:color(display-p3 0.8542 0.8563 0.9625);stop-opacity:1;"/>
</linearGradient>
<linearGradient id="paint3_linear_13_6188" x1="33.0527" y1="374.508" x2="16.1207" y2="316.192" gradientUnits="userSpaceOnUse">
<stop offset="0.0001" stop-color="#FFE4C5" style="stop-color:#FFE4C5;stop-color:color(display-p3 1.0000 0.8941 0.7725);stop-opacity:1;"/>
<stop offset="1" stop-color="#FFEEEC" style="stop-color:#FFEEEC;stop-color:color(display-p3 1.0000 0.9333 0.9255);stop-opacity:1;"/>
</linearGradient>
<linearGradient id="paint4_linear_13_6188" x1="427.474" y1="92.9219" x2="374.265" y2="63.659" gradientUnits="userSpaceOnUse">
<stop offset="0.0001" stop-color="#E4E5FF" style="stop-color:#E4E5FF;stop-color:color(display-p3 0.8941 0.8980 1.0000);stop-opacity:1;"/>
<stop offset="1" stop-color="#FFEEEC" style="stop-color:#FFEEEC;stop-color:color(display-p3 1.0000 0.9333 0.9255);stop-opacity:1;"/>
</linearGradient>
<clipPath id="clip0_13_6188">
<rect width="551.546" height="584.997" fill="white" style="fill:white;fill:white;fill-opacity:1;" transform="translate(189.411 648.151) rotate(-120)"/>
</clipPath>
</defs>
</svg>
