<svg width="89" height="89" viewBox="0 0 89 89" fill="none" xmlns="http://www.w3.org/2000/svg">
<circle cx="44.6475" cy="44.9941" r="44" fill="url(#paint0_linear)"/>
<g style="mix-blend-mode:multiply">
<path d="M77.5887 40.3528C77.8788 34.3279 73.6708 30.331 68.9218 27.5869L65.835 45.7216C67.972 45.6023 69.0168 46.4136 69.3967 46.7954C69.8716 47.2726 71.0589 48.7043 69.6342 50.9712C72.6023 50.4939 77.2383 47.6305 77.5887 40.3528Z" fill="url(#paint1_linear)"/>
</g>
<path fill-rule="evenodd" clip-rule="evenodd" d="M37.0972 19.2395L33.4168 15.5409C38.9573 14.8649 53.5763 15.7318 67.7283 24.6083C67.9657 25.5628 67.7283 26.9944 67.7283 26.9944L68.9155 27.591C69.9445 29.0624 71.6937 33.2461 70.459 38.2093C69.2242 43.1725 67.0951 45.2882 66.1849 45.7257C64.2853 45.7257 61.0559 46.8233 60.0112 51.6911C58.9664 56.5588 56.9639 57.6167 56.0932 57.5371L35.1976 57.7757L21.4256 49.6628L19.4072 32.8405L23.3252 27.591L30.3299 21.8642L35.3164 19.836L37.0972 19.2395ZM61.7761 26.1885C60.8547 27.1483 59.9931 27.6088 59.7471 27.7336C54.3667 26.5891 52.4283 23.8056 52.4283 23.8056C57.5034 23.7743 62.084 24.9814 65.4353 27.0234C65.4353 27.0234 63.6212 26.4355 61.7761 26.1885Z" fill="url(#paint2_linear)"/>
<path fill-rule="evenodd" clip-rule="evenodd" d="M59.8268 51.6932C56.1385 53.5032 51.7657 54.551 47.0771 54.551C33.8975 54.551 23.2134 46.2715 23.2134 36.0583C23.2134 28.5137 29.0437 22.0243 37.4034 19.1482C21.5047 20.0636 8.72852 32.8355 8.72852 48.5949C8.72852 66.7826 24.9408 81.8105 44.9396 81.8105C59.8733 81.8105 72.304 73.1522 78.8038 61.568C69.8605 63.5793 59.2738 59.7556 59.8268 51.6932Z" fill="url(#paint3_linear)"/>
<defs>
<linearGradient id="paint0_linear" x1="88.6475" y1="0.994126" x2="24.7058" y2="-13.3796" gradientUnits="userSpaceOnUse">
<stop stop-color="#01E8F7"/>
<stop offset="1" stop-color="#00C2FF"/>
</linearGradient>
<linearGradient id="paint1_linear" x1="71.7693" y1="34.2009" x2="73.3566" y2="54.688" gradientUnits="userSpaceOnUse">
<stop stop-color="#50BFFF"/>
<stop offset="1" stop-color="#00C3F4"/>
</linearGradient>
<linearGradient id="paint2_linear" x1="126.167" y1="28.1288" x2="-53.2399" y2="-162.7" gradientUnits="userSpaceOnUse">
<stop stop-color="#B1FAFF"/>
<stop offset="1" stop-color="#B5EDFF"/>
</linearGradient>
<linearGradient id="paint3_linear" x1="44.0659" y1="36.8716" x2="45.9892" y2="92.033" gradientUnits="userSpaceOnUse">
<stop stop-color="#50BFFF"/>
<stop offset="1" stop-color="#00C3F4"/>
</linearGradient>
</defs>
</svg>
