<svg fill="none" xmlns="http://www.w3.org/2000/svg" viewBox="0 0 89 89"><circle cx="44.6" cy="45" r="44" fill="url(#paint0_linear)"/><path d="M77.6 40.4c.3-6-4-10-8.7-12.8l-3 18.1c2-.1 3.1.7 3.5 1.1.5.5 1.7 1.9.2 4.2 3-.5 7.6-3.4 8-10.6z" fill="url(#paint1_linear)"/><path fill-rule="evenodd" clip-rule="evenodd" d="M37.1 19.2l-3.7-3.7a58 58 0 0134.3 9.1c.3 1 0 2.4 0 2.4l1.2.6c1 1.5 2.8 5.6 1.6 10.6-1.3 5-3.4 7-4.3 7.5-2 0-5.1 1.1-6.2 6-1 4.9-3 6-4 5.8l-20.8.3-13.8-8.1-2-16.9 4-5.2 7-5.7 5-2 1.7-.7zm24.7 7c-1 1-1.8 1.4-2 1.5-5.4-1.1-7.4-3.9-7.4-3.9 5.1 0 9.7 1.2 13 3.2 0 0-1.8-.6-3.6-.8z" fill="url(#paint2_linear)"/><path fill-rule="evenodd" clip-rule="evenodd" d="M59.8 51.7a29 29 0 01-12.7 2.9c-13.2 0-23.9-8.3-23.9-18.5 0-7.6 5.8-14 14.2-17A30 30 0 008.7 48.6C8.7 66.8 25 81.8 45 81.8a39 39 0 0033.9-20.2c-9 2-19.5-1.8-19-10z" fill="url(#paint3_linear)"/><defs><linearGradient id="paint0_linear" x1="88.6" y1="1" x2="24.7" y2="-13.4" gradientUnits="userSpaceOnUse"><stop stop-color="#01E8F7"/><stop offset="1" stop-color="#00C2FF"/></linearGradient><linearGradient id="paint1_linear" x1="71.8" y1="34.2" x2="73.4" y2="54.7" gradientUnits="userSpaceOnUse"><stop stop-color="#50BFFF"/><stop offset="1" stop-color="#00C3F4"/></linearGradient><linearGradient id="paint2_linear" x1="126.2" y1="28.1" x2="-53.2" y2="-162.7" gradientUnits="userSpaceOnUse"><stop stop-color="#B1FAFF"/><stop offset="1" stop-color="#B5EDFF"/></linearGradient><linearGradient id="paint3_linear" x1="44.1" y1="36.9" x2="46" y2="92" gradientUnits="userSpaceOnUse"><stop stop-color="#50BFFF"/><stop offset="1" stop-color="#00C3F4"/></linearGradient></defs></svg>