<svg width="148" height="149" viewBox="0 0 148 149" fill="none" xmlns="http://www.w3.org/2000/svg">
<circle cx="74" cy="74.0342" r="72" stroke="#FF7163" stroke-width="4"/>
<circle cx="73.9824" cy="73.5273" r="60" fill="#FF7163"/>
<path d="M120.872 67.5602C121.288 58.9154 115.251 53.1805 108.436 49.2432L104.007 75.2636C107.074 75.0925 108.573 76.2565 109.118 76.8043C109.799 77.4891 111.503 79.5433 109.459 82.7959C113.717 82.1111 120.369 78.0026 120.872 67.5602Z" fill="url(#paint0_linear)"/>
<path fill-rule="evenodd" clip-rule="evenodd" d="M62.7725 37.2657L57.4916 31.9589C65.4414 30.9888 86.4173 32.2328 106.723 44.9691C107.064 46.3386 106.723 48.3929 106.723 48.3929L108.427 49.2488C109.903 51.3601 112.413 57.3631 110.641 64.4845C108.87 71.6059 105.815 74.6416 104.509 75.2693C101.783 75.2693 97.1495 76.8442 95.6504 83.8287C94.1513 90.8131 91.278 92.331 90.0288 92.2168L60.0469 92.5592L40.2861 80.9185L37.3901 56.781L43.0117 49.2488L53.0625 41.0318L60.2173 38.1216L62.7725 37.2657ZM98.182 47.2373C96.86 48.6144 95.6237 49.2751 95.2708 49.4543C87.5507 47.8121 84.7694 43.8182 84.7694 43.8182C92.0514 43.7733 98.6238 45.5053 103.432 48.4353C103.432 48.4353 100.829 47.5917 98.182 47.2373Z" fill="url(#paint1_linear)"/>
<path fill-rule="evenodd" clip-rule="evenodd" d="M95.3864 83.8303C90.094 86.4276 83.8194 87.9312 77.0916 87.9312C58.1809 87.9312 42.8509 76.0515 42.8509 61.3972C42.8509 50.5718 51.2165 41.2605 63.2113 37.1338C40.3996 38.4477 22.0684 56.7733 22.0684 79.3852C22.0684 105.482 45.3304 127.044 74.0256 127.044C95.4531 127.044 113.289 114.621 122.615 97.9995C109.783 100.885 94.5925 95.3988 95.3864 83.8303Z" fill="url(#paint2_linear)"/>
<circle cx="123.348" cy="114.609" r="20" fill="white"/>
<circle cx="123.348" cy="114.609" r="20" fill="white"/>
<circle cx="123.348" cy="114.609" r="18.5" stroke="url(#paint3_linear)" stroke-width="3"/>
<path d="M132.041 107.45C132.464 107.026 132.464 106.339 132.041 105.916C131.617 105.492 130.93 105.492 130.506 105.916L123.807 112.615C123.553 112.869 123.142 112.869 122.888 112.615L116.188 105.916C115.765 105.492 115.078 105.492 114.654 105.916C114.23 106.339 114.23 107.026 114.654 107.45L121.353 114.15C121.607 114.404 121.607 114.815 121.353 115.069L114.654 121.768C114.23 122.192 114.23 122.879 114.654 123.303C115.078 123.726 115.765 123.726 116.188 123.302L122.888 116.603C123.142 116.349 123.553 116.349 123.807 116.603L130.506 123.302C130.93 123.726 131.617 123.726 132.04 123.303C132.464 122.879 132.464 122.192 132.041 121.768L125.341 115.069C125.087 114.815 125.087 114.404 125.341 114.15L132.041 107.45Z" fill="#FF7163" stroke="#FF7C7C" stroke-width="0.7"/>
<defs>
<linearGradient id="paint0_linear" x1="109.471" y1="52.8416" x2="126.821" y2="64.2602" gradientUnits="userSpaceOnUse">
<stop stop-color="#FF9C92"/>
<stop offset="1" stop-color="#FFBAB3"/>
</linearGradient>
<linearGradient id="paint1_linear" x1="34.6343" y1="28.1025" x2="92.0772" y2="87.5912" gradientUnits="userSpaceOnUse">
<stop stop-color="#FFB8B1"/>
<stop offset="1" stop-color="#FFE7E5"/>
</linearGradient>
<linearGradient id="paint2_linear" x1="54.6011" y1="46.7764" x2="101.776" y2="115.766" gradientUnits="userSpaceOnUse">
<stop stop-color="#FF9C92"/>
<stop offset="1" stop-color="#FFBAB3"/>
</linearGradient>
<linearGradient id="paint3_linear" x1="123.348" y1="100.973" x2="123.348" y2="150.973" gradientUnits="userSpaceOnUse">
<stop stop-color="#FF7163"/>
<stop offset="1" stop-color="#FF7C7C"/>
</linearGradient>
</defs>
</svg>
